<svg width="576" height="512" viewBox="0 0 576 512" fill="none" xmlns="http://www.w3.org/2000/svg">
<g clip-path="url(#clip0_379:89)">
<path d="M463.7 0H112.3C108.1 0 104.2 2.2 102 5.8L1.69999 168.6C-1.00001 173 -0.500015 178.7 2.89999 182.6L278.9 507.8C283.7 513.4 292.3 513.4 297.1 507.8L573.1 182.6C576.5 178.7 576.9 173 574.3 168.6L474 5.8C471.8 2.2 467.9 0 463.7 0ZM450.1 36L524.4 160H441.4L384.6 36H450.1V36ZM345 36L401.8 160H174.1L231 36H345ZM125.9 36H191.4L134.6 160H51.6L125.9 36V36ZM61.2 192H134.2L216 384L61.2 192ZM173.2 192H402.7L288 455.8L173.2 192ZM360 384L441.8 192H514.8L360 384Z" fill="black"/>
</g>
<defs>
<clipPath id="clip0_379:89">
<rect width="576" height="512" fill="white"/>
</clipPath>
</defs>
</svg>
