<svg xmlns="http://www.w3.org/2000/svg" version="1.1" xmlns:xlink="http://www.w3.org/1999/xlink" xmlns:svgjs="http://svgjs.dev/svgjs" width="1000" height="1000"><g clip-path="url(#SvgjsClipPath1176)"><rect width="1000" height="1000" fill="#000000"></rect><g transform="matrix(2.7131782945736433,0,0,2.7131782945736433,150,150)"><svg xmlns="http://www.w3.org/2000/svg" version="1.1" xmlns:xlink="http://www.w3.org/1999/xlink" xmlns:svgjs="http://svgjs.dev/svgjs" width="258" height="258"><svg xmlns="http://www.w3.org/2000/svg" width="258" height="258" data-name="Слой_2"><g fill="#f4f0cd"><path d="M-.09 84.735s36.82-8.52 49.29 9.34l-9.21 9.34s3.02-19.01-40.08-18.68m94.3 94s63.91-46.52 42.27-78.53-72.61 1-72.61 1-37.06 19.23-53.47 60.8c0 0-6.1 14.95-1.24 10.34 0 0 29.07-19.92 32.67-52.71l11.28-9.19s-6.44 28.13-24.32 49.77-25.43 20.9-26.61 18.52c-1.18-2.39 2.86-15.57 5.41-21.81 2.56-6.25 27.34-68.6 87.31-81.28 34.59-7.34 51.14 10.75 55.2 27.77 2.98 12.47-2.07 23.11-4.99 29.18-6.9 14.35-31.59 35.12-50.89 46.14z" class="cls-1"></path><path d="M122.94 94.585s-8.25-3.32-15.08-3.08c0 0-33.31 16.52-50.6 51.7-5.18 10.55-14.26 36.32 6.27 40.54 11.02 2.27 34.89-8.77 54.46-33.42s7.54-39.13-3.87-39.26c0 0-27.85-.32-40.32 28.63 0 0 1.53 9.05.56 15.67 0 0 13.78-37.32 37.76-36.88 6.37.11 8.02 5.4 8.31 9.44.81 11.15-15.87 30.06-27.19 36.68 0 0-26.98 18.36-32.94-.6-3.02-9.59 9-29.53 22.7-44.02a90.6 90.6 0 0 1 24.37-18.28c13.66-6.71 15.56-7.1 15.56-7.1zm55.88-2.75.02-.03s-.08-.08-.13-.12c-.03-.01-.1-.05.11.15" class="cls-1"></path><path d="M258.09 102.885c-5.69-6.38-13.01-10.57-20.51-14.05-14.49-6.51-30.85-9.58-47.56-9.92l-.08-.08-.06.08c-14.9-.29-31.18 2.06-45.54 5.61l.95.65c2.95 2.03 5.11 5 6.13 8.43 8.91-1.32 18.26-2.1 27.64-2.05l-.22.26c2.65 2.05 4.26 5.09 5.68 8.23 12.64 32.86-12.58 64.71-40.18 80.6 25.07-10.95 48.53-31.81 53.13-60.13 1.89-8.89 2.37-18.72-.1-27.7 13.87 1.92 27.22 6.17 38.65 13.82 3.41 2.28 6.65 4.87 9.69 7.78z" class="cls-1"></path></g></svg></svg></g></g><defs><clipPath id="SvgjsClipPath1176"><rect width="1000" height="1000" x="0" y="0" rx="500" ry="500"></rect></clipPath></defs></svg>